<svg xmlns="http://www.w3.org/2000/svg" width="25" height="26" viewBox="0 0 25 26" fill="none">
<g clip-path="url(#clip0_1434_1494)">
<path d="M0.670996 9.36817L1.83054 9.5488C2.45098 7.21909 3.79104 5.1657 5.60971 3.64641C7.54492 2.03045 10.0252 1.01498 12.7604 0.909529C16.0074 0.783572 19.001 1.96747 21.2149 3.9818C23.4279 5.99614 24.8612 8.84091 24.9886 12.0367C25.0362 13.2372 24.8989 14.3986 24.6018 15.4922C24.3781 16.3158 24.0627 17.1057 23.6669 17.8502L23.6381 17.8044C23.355 17.363 22.9527 16.9959 22.4667 16.7518C22.2549 16.6454 22.0273 16.5614 21.7872 16.5043C22.0327 15.996 22.2336 15.4629 22.3839 14.9088C22.6254 14.0198 22.7375 13.0839 22.6993 12.1251C22.5966 9.54783 21.443 7.25571 19.6616 5.63438C17.8801 4.01354 15.4688 3.06154 12.8501 3.16308C10.6491 3.24803 8.6514 4.06675 7.09112 5.36977C5.68162 6.54683 4.6297 8.11885 4.10697 9.90226L5.03837 10.0468C5.35479 10.0951 5.57202 10.3871 5.52292 10.6985C5.50159 10.8347 5.43265 10.9529 5.33545 11.0378L2.73268 13.3192C2.49313 13.5291 2.12513 13.5081 1.91138 13.2719C1.87517 13.2323 1.84591 13.1884 1.8231 13.143L0.0818018 10.2215C-0.0803752 9.94962 0.0123682 9.59958 0.288615 9.43993C0.408636 9.37061 0.543535 9.34913 0.670996 9.36817ZM5.48671 23.5759V16.8807C8.84184 16.8807 9.41219 16.7318 12.4365 18.6055H14.8131C15.8889 18.6685 16.4523 19.7425 15.4063 20.4475C14.5736 21.0495 13.4741 21.0153 12.3468 20.9157C11.5691 20.8776 11.5359 21.9058 12.3468 21.9092C12.6285 21.9311 12.934 21.8657 13.2008 21.8657C14.6068 21.8638 15.7654 21.5992 16.4746 20.5056L16.8302 19.6878L20.3653 17.9635C22.1339 17.3904 23.3921 19.2114 22.0878 20.4787C19.5272 22.3119 16.9021 23.8205 14.2165 25.0391C12.2654 26.2073 10.3148 26.1668 8.36573 25.0391L5.48671 23.5759ZM0.247451 16.2372H4.56523V24.2487H0.247451V16.2372ZM9.62793 10.554L10.2558 9.16215H12.623C12.5932 9.06304 12.5417 8.96589 12.4668 8.87118C12.3919 8.77598 12.2996 8.69396 12.1905 8.62414C12.0814 8.55482 11.9589 8.4977 11.824 8.45571C11.6891 8.41129 11.5458 8.39029 11.3955 8.39029H9.62793L10.2558 6.99842H17.0325L16.4046 8.39029H14.768C14.832 8.43863 14.892 8.49575 14.948 8.56117C15.0036 8.62414 15.0527 8.68956 15.0958 8.76133C15.1365 8.83114 15.1727 8.90047 15.203 8.97028C15.2307 9.03961 15.2501 9.10503 15.2585 9.16215H17.0325L16.4046 10.554H15.1211C15.0269 10.7903 14.888 11.0139 14.7015 11.2248C14.5151 11.4377 14.2988 11.6251 14.0523 11.7941C13.8039 11.963 13.536 12.1021 13.2464 12.2178C12.9573 12.3316 12.6642 12.4077 12.3661 12.4497L15.927 16.0585H13.1115L9.93641 12.6289V11.3513H11.3419C11.4768 11.3513 11.6098 11.3303 11.7407 11.2858C11.8736 11.2414 11.9956 11.1823 12.1047 11.1086C12.2163 11.0369 12.3125 10.9504 12.3939 10.8557C12.4752 10.7586 12.5332 10.6595 12.5675 10.554H9.62793Z" fill="white"/>
</g>
<defs>
<clipPath id="clip0_1434_1494">
<rect width="25" height="25" fill="white" transform="translate(0 0.900391)"/>
</clipPath>
</defs>
</svg>