<svg xmlns="http://www.w3.org/2000/svg" width="26" height="24" viewBox="0 0 26 24" fill="none">
<path d="M19.3913 16.83L19.8008 19.99C19.9058 20.82 18.9714 21.4 18.226 20.97L13.827 18.48C13.3441 18.48 12.8716 18.45 12.4097 18.39C13.1866 17.52 13.6485 16.42 13.6485 15.23C13.6485 12.39 11.0658 10.09 7.87424 10.09C6.65639 10.09 5.53303 10.42 4.59864 11C4.56715 10.75 4.55664 10.5 4.55664 10.24C4.55664 5.68999 8.70363 2 13.827 2C18.9504 2 23.0974 5.68999 23.0974 10.24C23.0974 12.94 21.638 15.33 19.3913 16.83Z" stroke="#252525" stroke-width="1.5" stroke-linecap="round" stroke-linejoin="round"/>
<path d="M13.6482 15.23C13.6482 16.42 13.1863 17.5201 12.4093 18.3901C11.37 19.5901 9.72167 20.36 7.8739 20.36L5.13374 21.91C4.67179 22.18 4.08386 21.81 4.14685 21.3L4.40932 19.3301C3.0025 18.4001 2.09961 16.91 2.09961 15.23C2.09961 13.47 3.08649 11.9201 4.59831 11.0001C5.53269 10.4201 6.65605 10.0901 7.8739 10.0901C11.0655 10.0901 13.6482 12.39 13.6482 15.23Z" stroke="#252525" stroke-width="1.5" stroke-linecap="round" stroke-linejoin="round"/>
</svg>