<svg xmlns="http://www.w3.org/2000/svg" width="26" height="24" viewBox="0 0 26 24" fill="none">
<path d="M23.0972 8.52V3.98C23.0972 2.57 22.4253 2 20.756 2H16.5146C14.8453 2 14.1733 2.57 14.1733 3.98V8.51C14.1733 9.93 14.8453 10.49 16.5146 10.49H20.756C22.4253 10.5 23.0972 9.93 23.0972 8.52Z" stroke="#252525" stroke-width="1.5" stroke-linecap="round" stroke-linejoin="round"/>
<path d="M23.0972 19.77V15.73C23.0972 14.14 22.4253 13.5 20.756 13.5H16.5146C14.8453 13.5 14.1733 14.14 14.1733 15.73V19.77C14.1733 21.36 14.8453 22 16.5146 22H20.756C22.4253 22 23.0972 21.36 23.0972 19.77Z" stroke="#252525" stroke-width="1.5" stroke-linecap="round" stroke-linejoin="round"/>
<path d="M11.0235 8.52V3.98C11.0235 2.57 10.3516 2 8.6823 2H4.44082C2.77153 2 2.09961 2.57 2.09961 3.98V8.51C2.09961 9.93 2.77153 10.49 4.44082 10.49H8.6823C10.3516 10.5 11.0235 9.93 11.0235 8.52Z" stroke="#252525" stroke-width="1.5" stroke-linecap="round" stroke-linejoin="round"/>
<path d="M11.0235 19.77V15.73C11.0235 14.14 10.3516 13.5 8.6823 13.5H4.44082C2.77153 13.5 2.09961 14.14 2.09961 15.73V19.77C2.09961 21.36 2.77153 22 4.44082 22H8.6823C10.3516 22 11.0235 21.36 11.0235 19.77Z" stroke="#252525" stroke-width="1.5" stroke-linecap="round" stroke-linejoin="round"/>
</svg>