<svg xmlns="http://www.w3.org/2000/svg" width="26" height="26" viewBox="0 0 26 26" fill="none">
<path d="M23.833 7.04199H17.333" stroke="white" stroke-width="1.5" stroke-miterlimit="10" stroke-linecap="round" stroke-linejoin="round"/>
<path d="M6.50033 7.04199H2.16699" stroke="white" stroke-width="1.5" stroke-miterlimit="10" stroke-linecap="round" stroke-linejoin="round"/>
<path d="M10.8337 10.8333C12.9277 10.8333 14.6253 9.13575 14.6253 7.04167C14.6253 4.94759 12.9277 3.25 10.8337 3.25C8.73958 3.25 7.04199 4.94759 7.04199 7.04167C7.04199 9.13575 8.73958 10.8333 10.8337 10.8333Z" stroke="white" stroke-width="1.5" stroke-miterlimit="10" stroke-linecap="round" stroke-linejoin="round"/>
<path d="M23.8333 18.958H19.5" stroke="white" stroke-width="1.5" stroke-miterlimit="10" stroke-linecap="round" stroke-linejoin="round"/>
<path d="M8.66699 18.958H2.16699" stroke="white" stroke-width="1.5" stroke-miterlimit="10" stroke-linecap="round" stroke-linejoin="round"/>
<path d="M15.1667 22.7503C17.2607 22.7503 18.9583 21.0527 18.9583 18.9587C18.9583 16.8646 17.2607 15.167 15.1667 15.167C13.0726 15.167 11.375 16.8646 11.375 18.9587C11.375 21.0527 13.0726 22.7503 15.1667 22.7503Z" stroke="white" stroke-width="1.5" stroke-miterlimit="10" stroke-linecap="round" stroke-linejoin="round"/>
</svg>