<svg xmlns="http://www.w3.org/2000/svg" width="24" height="24" viewBox="0 0 24 24" fill="none">
<path d="M22.8012 18.8576C22.8012 19.2476 22.7145 19.6484 22.5303 20.0384C22.3462 20.4284 22.1078 20.7967 21.7937 21.1434C21.2628 21.7284 20.6778 22.1509 20.017 22.4217C19.367 22.6926 18.6628 22.8334 17.9045 22.8334C16.7995 22.8334 15.6187 22.5734 14.3728 22.0426C13.127 21.5117 11.8812 20.7967 10.6462 19.8976C9.40033 18.9876 8.21949 17.9801 7.09283 16.8642C5.97699 15.7376 4.96949 14.5567 4.07033 13.3217C3.18199 12.0867 2.46699 10.8517 1.94699 9.62758C1.42699 8.39258 1.16699 7.21175 1.16699 6.08508C1.16699 5.34841 1.29699 4.64425 1.55699 3.99425C1.81699 3.33341 2.22866 2.72675 2.80283 2.18508C3.49616 1.50258 4.25449 1.16675 5.05616 1.16675C5.35949 1.16675 5.66283 1.23175 5.93366 1.36175C6.21533 1.49175 6.46449 1.68675 6.65949 1.96841L9.17283 5.51091C9.36783 5.78175 9.50866 6.03091 9.60616 6.26925C9.70366 6.49675 9.75783 6.72425 9.75783 6.93008C9.75783 7.19008 9.68199 7.45008 9.53033 7.69925C9.38949 7.94841 9.18366 8.20841 8.92366 8.46841L8.10033 9.32425C7.98116 9.44341 7.92699 9.58425 7.92699 9.75758C7.92699 9.84425 7.93783 9.92008 7.95949 10.0067C7.99199 10.0934 8.02449 10.1584 8.04616 10.2234C8.24116 10.5809 8.57699 11.0467 9.05366 11.6101C9.54116 12.1734 10.0612 12.7476 10.6245 13.3217C11.2095 13.8959 11.7728 14.4267 12.347 14.9142C12.9103 15.3909 13.3762 15.7159 13.7445 15.9109C13.7987 15.9326 13.8637 15.9651 13.9395 15.9976C14.0262 16.0301 14.1128 16.0409 14.2103 16.0409C14.3945 16.0409 14.5353 15.9759 14.6545 15.8567L15.4778 15.0442C15.7487 14.7734 16.0087 14.5676 16.2578 14.4376C16.507 14.2859 16.7562 14.2101 17.027 14.2101C17.2328 14.2101 17.4495 14.2534 17.6878 14.3509C17.9262 14.4484 18.1753 14.5892 18.4462 14.7734L22.032 17.3192C22.3137 17.5142 22.5087 17.7417 22.6278 18.0126C22.7362 18.2834 22.8012 18.5542 22.8012 18.8576Z" stroke="white" stroke-width="1.5" stroke-miterlimit="10"/>
<path d="M19.0417 8.75016C19.0417 8.10016 18.5325 7.1035 17.7742 6.291C17.0808 5.5435 16.16 4.9585 15.25 4.9585" stroke="white" stroke-width="1.5" stroke-linecap="round" stroke-linejoin="round"/>
<path d="M22.8333 8.75008C22.8333 4.55758 19.4425 1.16675 15.25 1.16675" stroke="white" stroke-width="1.5" stroke-linecap="round" stroke-linejoin="round"/>
</svg>