<svg xmlns="http://www.w3.org/2000/svg" width="24" height="25" viewBox="0 0 24 25" fill="none">
<path d="M17 19.98L17.99 20.97L20.12 19M19 14.36V6.5C19 3.5 17.5 1.5 14 1.5H6C2.5 1.5 1 3.5 1 6.5V15C1 18 2.5 20 6 20H13.37M2.99985 13.0272L7.18311 13M14.9084 12.6479L17 12.6343M14.9084 12.6479C14.8971 11.3689 13.6396 10.3404 12.0993 10.3504C10.5591 10.3604 9.31962 11.4053 9.33085 12.6843C9.34209 13.9632 10.5998 14.9919 12.14 14.9819C13.6803 14.9719 14.9196 13.9268 14.9084 12.6479ZM12.7611 6.30209L16.9443 6.2749M23 20C23 20.75 22.79 21.46 22.42 22.06C21.73 23.22 20.46 24 19 24C17.99 24 17.07 23.63 16.37 23C16.06 22.74 15.79 22.42 15.58 22.06C15.21 21.46 15 20.75 15 20C15 17.79 16.79 16 19 16C20.2 16 21.27 16.53 22 17.36C22.62 18.07 23 18.99 23 20ZM7.90077 8.64964C6.36054 8.65965 5.10283 7.63096 5.0916 6.35201C5.08036 5.07305 6.31986 4.02813 7.86009 4.01812C9.40032 4.00811 10.658 5.0368 10.6693 6.31576C10.6805 7.59472 9.441 8.63963 7.90077 8.64964Z" stroke="white" stroke-width="1.5" stroke-miterlimit="10" stroke-linecap="round" stroke-linejoin="round"/>
</svg>