<svg xmlns="http://www.w3.org/2000/svg" width="30" height="28" viewBox="0 0 30 28" fill="none">
  <path d="M15 2.33334C8.1125 2.33334 2.5 7.57167 2.5 14C2.5 20.4283 8.1125 25.6667 15 25.6667C21.8875 25.6667 27.5 20.4283 27.5 14C27.5 7.57167 21.8875 2.33334 15 2.33334ZM19.2 16.6833C19.5625 17.0217 19.5625 17.5817 19.2 17.92C19.0125 18.095 18.775 18.1767 18.5375 18.1767C18.3 18.1767 18.0625 18.095 17.875 17.92L15 15.2367L12.125 17.92C11.9375 18.095 11.7 18.1767 11.4625 18.1767C11.225 18.1767 10.9875 18.095 10.8 17.92C10.4375 17.5817 10.4375 17.0217 10.8 16.6833L13.675 14L10.8 11.3167C10.4375 10.9783 10.4375 10.4183 10.8 10.08C11.1625 9.74167 11.7625 9.74167 12.125 10.08L15 12.7633L17.875 10.08C18.2375 9.74167 18.8375 9.74167 19.2 10.08C19.5625 10.4183 19.5625 10.9783 19.2 11.3167L16.325 14L19.2 16.6833Z" fill="#7C69EF"/>
</svg>