<svg width="79" height="25" viewBox="0 0 79 25" fill="none" xmlns="http://www.w3.org/2000/svg">
<path d="M64.812 2.77667H76.2381C77.1903 2.77667 77.9694 3.6606 77.9694 4.74096V6.90167C77.9694 7.68739 77.5366 8.66953 77.1038 9.1606L73.3816 12.8927C72.8622 13.3838 72.516 14.366 72.516 15.1517V19.3749C72.516 19.9642 72.1698 20.7499 71.7369 21.0445L70.5251 21.9285C69.3998 22.7142 67.8417 21.8302 67.8417 20.2588V15.0535C67.8417 14.366 67.4954 13.482 67.1492 12.991L63.8599 9.06239C63.4271 8.57131 63.0808 7.68739 63.0808 7.0981V4.83917C63.0808 3.6606 63.8599 2.77667 64.812 2.77667Z" fill="#7C69EF" stroke="white" stroke-width="1.5" stroke-miterlimit="10" stroke-linecap="round" stroke-linejoin="round"/>
<path d="M69.5988 2.77667L65.3313 10.5356" stroke="white" stroke-width="1.5" stroke-miterlimit="10" stroke-linecap="round" stroke-linejoin="round"/>
</svg>
