<svg xmlns="http://www.w3.org/2000/svg" width="24" height="25" viewBox="0 0 24 25" fill="none">
<path d="M8.37988 12.3263L10.7899 14.7463L15.6199 9.90625" stroke="#8C52F8" stroke-width="1.5" stroke-linecap="round" stroke-linejoin="round"/>
<path d="M10.7499 2.77648C11.4399 2.18648 12.5699 2.18648 13.2699 2.77648L14.8499 4.13648C15.1499 4.39648 15.7099 4.60648 16.1099 4.60648H17.8099C18.8699 4.60648 19.7399 5.47648 19.7399 6.53648V8.23648C19.7399 8.62648 19.9499 9.19648 20.2099 9.49648L21.5699 11.0765C22.1599 11.7665 22.1599 12.8965 21.5699 13.5965L20.2099 15.1765C19.9499 15.4765 19.7399 16.0365 19.7399 16.4365V18.1365C19.7399 19.1965 18.8699 20.0665 17.8099 20.0665H16.1099C15.7199 20.0665 15.1499 20.2765 14.8499 20.5365L13.2699 21.8965C12.5799 22.4865 11.4499 22.4865 10.7499 21.8965L9.16988 20.5365C8.86988 20.2765 8.30988 20.0665 7.90988 20.0665H6.17988C5.11988 20.0665 4.24988 19.1965 4.24988 18.1365V16.4265C4.24988 16.0365 4.03988 15.4765 3.78988 15.1765L2.43988 13.5865C1.85988 12.8965 1.85988 11.7765 2.43988 11.0865L3.78988 9.49648C4.03988 9.19648 4.24988 8.63648 4.24988 8.24648V6.52648C4.24988 5.46648 5.11988 4.59648 6.17988 4.59648H7.90988C8.29988 4.59648 8.86988 4.38648 9.16988 4.12648L10.7499 2.77648Z" stroke="#8C52F8" stroke-width="1.5" stroke-linecap="round" stroke-linejoin="round"/>
</svg>