<svg xmlns="http://www.w3.org/2000/svg" width="26" height="27" viewBox="0 0 26 27" fill="none">
<path d="M25 22C25 22.75 24.79 23.46 24.42 24.06C23.73 25.22 22.46 26 21 26C19.99 26 19.07 25.63 18.37 25C18.06 24.74 17.79 24.42 17.58 24.06C17.21 23.46 17 22.75 17 22C17 19.79 18.79 18 21 18C22.2 18 23.27 18.53 24 19.36C24.62 20.07 25 20.99 25 22Z" stroke="white" stroke-width="1.5" stroke-miterlimit="10" stroke-linecap="round" stroke-linejoin="round"/>
<path d="M21 16.36V8.5C21 5.5 19.5 3.5 16 3.5H8C4.5 3.5 3 5.5 3 8.5V17C3 20 4.5 22 8 22H15.37" stroke="white" stroke-width="1.5" stroke-miterlimit="10" stroke-linecap="round" stroke-linejoin="round"/>
<path d="M21.3633 23.2617H20.3672C20.3698 23.0273 20.388 22.8255 20.4219 22.6562C20.4583 22.4844 20.5195 22.3294 20.6055 22.1914C20.694 22.0534 20.8112 21.9167 20.957 21.7812C21.0794 21.6719 21.1862 21.5677 21.2773 21.4688C21.3685 21.3698 21.4401 21.2682 21.4922 21.1641C21.5443 21.0573 21.5703 20.9388 21.5703 20.8086C21.5703 20.6576 21.5469 20.5326 21.5 20.4336C21.4557 20.332 21.388 20.2552 21.2969 20.2031C21.2083 20.151 21.0964 20.125 20.9609 20.125C20.849 20.125 20.7448 20.1497 20.6484 20.1992C20.5521 20.2461 20.4727 20.319 20.4102 20.418C20.3503 20.5169 20.319 20.6471 20.3164 20.8086H19.1836C19.1914 20.4518 19.2734 20.1576 19.4297 19.9258C19.5885 19.6914 19.8008 19.5182 20.0664 19.4062C20.332 19.2917 20.6302 19.2344 20.9609 19.2344C21.3255 19.2344 21.638 19.2943 21.8984 19.4141C22.1589 19.5312 22.3581 19.7044 22.4961 19.9336C22.6341 20.1602 22.7031 20.4362 22.7031 20.7617C22.7031 20.9883 22.6589 21.1901 22.5703 21.3672C22.4818 21.5417 22.3659 21.7044 22.2227 21.8555C22.0794 22.0065 21.9219 22.1628 21.75 22.3242C21.6016 22.457 21.5 22.5964 21.4453 22.7422C21.3932 22.888 21.3659 23.0612 21.3633 23.2617ZM20.25 24.4688C20.25 24.3021 20.3073 24.1641 20.4219 24.0547C20.5365 23.9427 20.6901 23.8867 20.8828 23.8867C21.0729 23.8867 21.2253 23.9427 21.3398 24.0547C21.457 24.1641 21.5156 24.3021 21.5156 24.4688C21.5156 24.6302 21.457 24.7669 21.3398 24.8789C21.2253 24.9909 21.0729 25.0469 20.8828 25.0469C20.6901 25.0469 20.5365 24.9909 20.4219 24.8789C20.3073 24.7669 20.25 24.6302 20.25 24.4688Z" fill="white"/>
<path d="M3.99987 15.848L8.56342 15.8184" stroke="white" stroke-width="1.5" stroke-miterlimit="10" stroke-linecap="round" stroke-linejoin="round"/>
<path d="M15.3552 15.4348L18 15.4199" stroke="white" stroke-width="1.5" stroke-miterlimit="10" stroke-linecap="round" stroke-linejoin="round"/>
<path d="M8.90628 15.4731C8.91614 16.8683 10.0197 17.9905 11.3712 17.9796C12.7226 17.9686 13.8102 16.8287 13.8003 15.4335C13.7905 14.0383 12.6869 12.9161 11.3355 12.927C9.98401 12.9379 8.89642 14.0778 8.90628 15.4731Z" stroke="white" stroke-width="1.5" stroke-miterlimit="10" stroke-linecap="round" stroke-linejoin="round"/>
<path d="M4.00021 8.19647L6.28198 8.18164" stroke="white" stroke-width="1.5" stroke-miterlimit="10" stroke-linecap="round" stroke-linejoin="round"/>
<path d="M11.3757 8.51208L16.6652 8.48242" stroke="white" stroke-width="1.5" stroke-miterlimit="10" stroke-linecap="round" stroke-linejoin="round"/>
<path d="M6.27731 8.56583C6.28717 9.96105 7.39074 11.0833 8.74219 11.0723C10.0937 11.0614 11.1812 9.92151 11.1714 8.52628C11.1615 7.13106 10.058 6.00885 8.7065 6.01977C7.35504 6.03069 6.26746 7.1706 6.27731 8.56583Z" stroke="white" stroke-width="1.5" stroke-miterlimit="10" stroke-linecap="round" stroke-linejoin="round"/>
</svg>