<svg xmlns="http://www.w3.org/2000/svg" width="24" height="23" viewBox="0 0 24 23" fill="none">
<g clip-path="url(#clip0_1434_1543)">
<path d="M3.60547 18.0017H1.52735C1.32706 18.0017 1.12875 17.9612 0.943753 17.8825C0.758756 17.8038 0.590707 17.6884 0.449224 17.543L0.402349 17.4909C0.142633 17.2008 -0.00101832 16.821 5.43449e-06 16.4271V7.09973C0.000133464 6.89384 0.03988 6.69 0.116966 6.49989C0.194053 6.30979 0.306963 6.13716 0.449224 5.9919L0.498052 5.94582C0.778388 5.68046 1.14588 5.53312 1.52735 5.53314H3.93165C3.91431 5.43532 3.90581 5.33607 3.90626 5.23665V1.63069C3.90637 1.41753 3.94768 1.2065 4.0278 1.00981C4.10792 0.813123 4.22527 0.63468 4.37305 0.484801C4.51859 0.332551 4.69205 0.211335 4.88345 0.128132C5.07485 0.0449288 5.28041 0.00138234 5.48829 0L18.5117 0C18.9315 0.00105791 19.3338 0.172569 19.6306 0.477028C19.9275 0.781486 20.0947 1.19412 20.0957 1.62468V5.23064C20.0955 5.33012 20.0864 5.42938 20.0684 5.52713H22.4727C22.8764 5.52793 23.2634 5.6929 23.5488 5.98589C23.691 6.13084 23.8038 6.30314 23.8809 6.49289C23.958 6.68265 23.9978 6.88615 23.9981 7.09172V16.4271C23.997 16.8423 23.8358 17.2402 23.5496 17.5337C23.2634 17.8273 22.8755 17.9927 22.4707 17.9937H20.3945V22.0625C20.3946 22.1845 20.3712 22.3054 20.3256 22.4181C20.28 22.5309 20.2132 22.6333 20.1289 22.7195C20.1049 22.7438 20.0794 22.7665 20.0527 22.7876C19.8924 22.9185 19.6932 22.9892 19.4883 22.988H4.51172C4.39272 22.988 4.27487 22.964 4.16494 22.9172C4.055 22.8705 3.95515 22.8019 3.8711 22.7155C3.84685 22.6915 3.82464 22.6653 3.80469 22.6374C3.67712 22.4729 3.60821 22.2686 3.60938 22.0584V18.0017H3.60547ZM5.27344 5.53314H18.7324L18.7695 5.49909C18.8378 5.42963 18.8764 5.33526 18.877 5.23665V1.63069C18.8764 1.5315 18.8378 1.43652 18.7694 1.36638C18.701 1.29624 18.6084 1.2566 18.5117 1.25608H5.48829C5.39151 1.25632 5.29879 1.29595 5.23047 1.36626C5.16264 1.43665 5.12472 1.53172 5.12501 1.63069V5.23665C5.12506 5.28551 5.13458 5.33388 5.15303 5.37893C5.17147 5.42399 5.19846 5.46483 5.23243 5.49909L5.26954 5.53314H5.27344ZM7.08985 19.8989C6.96553 19.8989 6.8463 19.8482 6.75839 19.7581C6.67049 19.6679 6.6211 19.5456 6.6211 19.4181C6.6211 19.2906 6.67049 19.1683 6.75839 19.0781C6.8463 18.9879 6.96553 18.9373 7.08985 18.9373H12.4297C12.554 18.9373 12.6732 18.9879 12.7612 19.0781C12.8491 19.1683 12.8984 19.2906 12.8984 19.4181C12.8984 19.5456 12.8491 19.6679 12.7612 19.7581C12.6732 19.8482 12.554 19.8989 12.4297 19.8989H7.08985ZM7.08985 16.9821C6.96553 16.9821 6.8463 16.9314 6.75839 16.8412C6.67049 16.7511 6.6211 16.6288 6.6211 16.5013C6.6211 16.3737 6.67049 16.2515 6.75839 16.1613C6.8463 16.0711 6.96553 16.0205 7.08985 16.0205H16.916C17.0403 16.0205 17.1596 16.0711 17.2475 16.1613C17.3354 16.2515 17.3848 16.3737 17.3848 16.5013C17.3848 16.6288 17.3354 16.7511 17.2475 16.8412C17.1596 16.9314 17.0403 16.9821 16.916 16.9821H7.08985ZM1.38086 12.1421H22.6191V7.09973C22.6193 7.07968 22.6156 7.05981 22.6082 7.04125C22.6008 7.02268 22.5899 7.00579 22.5762 6.99155C22.5485 6.96373 22.5114 6.94794 22.4727 6.94748H1.52735C1.49478 6.94776 1.46321 6.95903 1.43751 6.97953L1.42383 6.99355C1.39653 7.02183 1.38111 7.05994 1.38086 7.09973V12.1421ZM22.6191 13.5584H19.959C20.0214 13.5964 20.0786 13.6429 20.1289 13.6966C20.2132 13.7828 20.28 13.8853 20.3256 13.998C20.3712 14.1108 20.3946 14.2316 20.3945 14.3537V16.5854H22.4727C22.5115 16.5854 22.5487 16.5695 22.5762 16.5413C22.603 16.5127 22.6183 16.4748 22.6191 16.4352V13.5584ZM4.04102 13.5584H1.38086V16.4271C1.38125 16.4602 1.39147 16.4924 1.41016 16.5193L1.42383 16.5333C1.45128 16.5615 1.48851 16.5774 1.52735 16.5774H3.60547V14.3537C3.60542 14.2316 3.62885 14.1108 3.67443 13.998C3.72002 13.8853 3.78685 13.7828 3.8711 13.6966C3.92142 13.6429 3.97857 13.5964 4.04102 13.5584ZM19.0156 14.4058H4.98438V21.5837H19.0156V14.4058Z" fill="white"/>
</g>
<defs>
<clipPath id="clip0_1434_1543">
<rect width="24" height="23" fill="white"/>
</clipPath>
</defs>
</svg>