<svg width="26" height="24" viewBox="0 0 26 24" fill="none" xmlns="http://www.w3.org/2000/svg">
<path d="M2.09985 2.00001H3.92686C5.06086 2.00001 5.95336 2.93001 5.85886 4.00001L4.98735 13.96C4.84035 15.59 6.19485 16.99 7.91685 16.99H19.0994C20.6114 16.99 21.9344 15.81 22.0499 14.38L22.6168 6.88001C22.7428 5.22001 21.4198 3.87 19.6663 3.87H6.11086" stroke="#7C69EF" stroke-width="1.5" stroke-miterlimit="10" stroke-linecap="round" stroke-linejoin="round"/>
<path d="M17.0625 22C17.7874 22 18.375 21.4404 18.375 20.75C18.375 20.0596 17.7874 19.5 17.0625 19.5C16.3376 19.5 15.75 20.0596 15.75 20.75C15.75 21.4404 16.3376 22 17.0625 22Z" stroke="#7C69EF" stroke-width="1.5" stroke-miterlimit="10" stroke-linecap="round" stroke-linejoin="round"/>
<path d="M8.6626 22C9.38747 22 9.9751 21.4404 9.9751 20.75C9.9751 20.0596 9.38747 19.5 8.6626 19.5C7.93772 19.5 7.3501 20.0596 7.3501 20.75C7.3501 21.4404 7.93772 22 8.6626 22Z" stroke="#7C69EF" stroke-width="1.5" stroke-miterlimit="10" stroke-linecap="round" stroke-linejoin="round"/>
<path d="M9.44995 7.99999H22.05" stroke="#7C69EF" stroke-width="1.5" stroke-miterlimit="10" stroke-linecap="round" stroke-linejoin="round"/>
<path d="M23.5812 5.57143C23.5812 7.17439 21.9974 8.67857 19.7691 8.67857C17.5408 8.67857 15.957 7.17439 15.957 5.57143C15.957 3.96847 17.5408 2.46429 19.7691 2.46429C21.9974 2.46429 23.5812 3.96847 23.5812 5.57143Z" fill="white" stroke="#F92B0F" stroke-width="1.5"/>
</svg>
