<svg xmlns="http://www.w3.org/2000/svg" width="22" height="22" viewBox="0 0 22 22" fill="none">
<g clip-path="url(#clip0_1338_10731)">
<path d="M20.4898 19.6842C20.5146 19.9047 20.4923 20.1279 20.4246 20.3391C20.3569 20.5504 20.2452 20.7449 20.097 20.9099C19.9483 21.0747 19.7664 21.2061 19.5632 21.2955C19.3601 21.3849 19.1403 21.4302 18.9184 21.4285H3.58124C3.35931 21.4302 3.13954 21.3849 2.9364 21.2955C2.73326 21.2061 2.55136 21.0747 2.40267 20.9099C2.25437 20.7449 2.1427 20.5504 2.07499 20.3391C2.00727 20.1279 1.98506 19.9047 2.00981 19.6842L3.39267 7.28564H19.107L20.4898 19.6842Z" stroke="#D6D7D9" stroke-width="1.5" stroke-linecap="round" stroke-linejoin="round"/>
<path d="M7 7.28571V4.92857C7 3.88665 7.4139 2.8874 8.15065 2.15065C8.8874 1.4139 9.88665 1 10.9286 1C11.9705 1 12.9697 1.4139 13.7065 2.15065C14.4432 2.8874 14.8571 3.88665 14.8571 4.92857V7.28571" stroke="#D6D7D9" stroke-width="1.5" stroke-linecap="round" stroke-linejoin="round"/>
</g>
<defs>
<clipPath id="clip0_1338_10731">
<rect width="22" height="22" fill="white"/>
</clipPath>
</defs>
</svg>