<svg xmlns="http://www.w3.org/2000/svg" width="27" height="25" viewBox="0 0 27 25" fill="none">
<path d="M2.25 13.083H21.375" stroke="white" stroke-width="1.5" stroke-miterlimit="10" stroke-linecap="round" stroke-linejoin="round"/>
<path d="M21.375 10.6658V18.0839C21.3413 21.0408 20.4637 21.7878 17.1225 21.7878H6.50253C3.10503 21.7878 2.25 21.0096 2.25 17.9179V10.6658C2.25 7.86452 2.95875 6.9619 5.625 6.81665C5.895 6.80627 6.18753 6.7959 6.50253 6.7959H17.1225C20.52 6.7959 21.375 7.57402 21.375 10.6658Z" stroke="white" stroke-width="1.5" stroke-linecap="round" stroke-linejoin="round"/>
<path d="M24.75 6.98218V14.2343C24.75 17.0356 24.0412 17.9382 21.375 18.0834V10.6653C21.375 7.57355 20.52 6.79543 17.1225 6.79543H6.50253C6.18753 6.79543 5.895 6.8058 5.625 6.81618C5.65875 3.8593 6.53628 3.1123 9.87753 3.1123H20.4975C23.895 3.1123 24.75 3.89043 24.75 6.98218Z" stroke="white" stroke-width="1.5" stroke-linecap="round" stroke-linejoin="round"/>
<path d="M5.90625 18.4775H7.84122" stroke="white" stroke-width="1.5" stroke-miterlimit="10" stroke-linecap="round" stroke-linejoin="round"/>
<path d="M10.249 18.4775H14.119" stroke="white" stroke-width="1.5" stroke-miterlimit="10" stroke-linecap="round" stroke-linejoin="round"/>
</svg>