<svg xmlns="http://www.w3.org/2000/svg" width="26" height="27" viewBox="0 0 26 27" fill="none">
<path d="M2.16699 3.06738H4.052C5.222 3.06738 6.14283 4.07488 6.04533 5.23405L5.14616 16.024C4.99449 17.7899 6.39199 19.3065 8.16865 19.3065H19.7062C21.2662 19.3065 22.6312 18.0282 22.7503 16.4791L23.3353 8.35405C23.4653 6.55572 22.1003 5.09321 20.2912 5.09321H6.30533" stroke="white" stroke-width="1.5" stroke-miterlimit="10" stroke-linecap="round" stroke-linejoin="round"/>
<path d="M17.6042 24.7337C18.3521 24.7337 18.9583 24.1274 18.9583 23.3796C18.9583 22.6317 18.3521 22.0254 17.6042 22.0254C16.8563 22.0254 16.25 22.6317 16.25 23.3796C16.25 24.1274 16.8563 24.7337 17.6042 24.7337Z" stroke="white" stroke-width="1.5" stroke-miterlimit="10" stroke-linecap="round" stroke-linejoin="round"/>
<path d="M8.93717 24.7337C9.68506 24.7337 10.2913 24.1274 10.2913 23.3796C10.2913 22.6317 9.68506 22.0254 8.93717 22.0254C8.18929 22.0254 7.58301 22.6317 7.58301 23.3796C7.58301 24.1274 8.18929 24.7337 8.93717 24.7337Z" stroke="white" stroke-width="1.5" stroke-miterlimit="10" stroke-linecap="round" stroke-linejoin="round"/>
<path d="M9.75 9.56738H22.75" stroke="white" stroke-width="1.5" stroke-miterlimit="10" stroke-linecap="round" stroke-linejoin="round"/>
</svg>