<svg xmlns="http://www.w3.org/2000/svg" width="23" height="22" viewBox="0 0 23 22" fill="none">
<path d="M11.7588 0.785645V7.07136" stroke="#7C69EF" stroke-width="1.5" stroke-linecap="round" stroke-linejoin="round"/>
<path d="M1.54443 7.07153H21.973V19.643C21.973 20.0597 21.8074 20.4594 21.5127 20.7541C21.218 21.0488 20.8183 21.2144 20.4016 21.2144H3.11586C2.69909 21.2144 2.29939 21.0488 2.00469 20.7541C1.70999 20.4594 1.54443 20.0597 1.54443 19.643V7.07153Z" stroke="#7C69EF" stroke-width="1.5" stroke-linecap="round" stroke-linejoin="round"/>
<path d="M1.54443 7.07136L3.90158 2.52993C4.15569 2.01807 4.54456 1.58518 5.02634 1.27784C5.50812 0.970495 6.06458 0.800328 6.63586 0.785645H16.8816C17.4663 0.785955 18.0393 0.949369 18.5362 1.25751C19.0331 1.56566 19.4342 2.00631 19.6944 2.52993L21.973 7.07136" stroke="#7C69EF" stroke-width="1.5" stroke-linecap="round" stroke-linejoin="round"/>
<path d="M11.7578 10.5361L11.7578 17.7835" stroke="#7C69EF" stroke-width="1.5" stroke-linecap="round" stroke-linejoin="round"/>
<path d="M14.5088 15.0792L11.7585 17.8295L9.00814 15.0792" stroke="#7C69EF" stroke-width="1.5" stroke-linecap="round" stroke-linejoin="round"/>
</svg>