<svg xmlns="http://www.w3.org/2000/svg" width="35" height="24" viewBox="0 0 35 24" fill="none">
<g clip-path="url(#clip0_1234_724)">
<path fill-rule="evenodd" clip-rule="evenodd" d="M23.4372 16.4428C23.4352 16.203 23.4126 16.0318 23.7141 16.0359L24.6902 16.048C25.0054 16.046 25.0895 16.1443 25.086 16.4354V17.7478H26.4095C26.6521 17.7458 26.8258 17.7235 26.8217 18.0206L26.8101 18.9834C26.8114 19.294 26.7116 19.3762 26.4163 19.3728H25.086V20.6845C25.0895 20.9756 25.0054 21.0739 24.6902 21.0719L23.7141 21.084C23.4126 21.0881 23.4352 20.917 23.4372 20.6771V19.3728H22.1049C21.8103 19.3762 21.7105 19.294 21.7118 18.9834L21.7002 18.0206C21.6954 17.7235 21.8697 17.7458 22.1124 17.7478H23.4372V16.4428ZM24.2609 13.1207C25.7847 13.1207 27.1648 13.7297 28.1629 14.714C29.1616 15.6983 29.7796 17.0592 29.7796 18.5603C29.7796 20.0627 29.1616 21.4222 28.1629 22.4065C27.1648 23.3908 25.784 23.9999 24.2609 23.9999C22.7365 23.9999 21.357 23.3908 20.3583 22.4065L20.3275 22.3742C19.3466 21.3912 18.7416 20.0438 18.7416 18.5603C18.7416 17.0606 19.3596 15.7004 20.359 14.7161C21.357 13.7297 22.7372 13.1207 24.2609 13.1207ZM27.3583 15.507C26.566 14.7262 25.4709 14.2431 24.2609 14.2431C23.051 14.2431 21.9545 14.7262 21.1622 15.507C20.3692 16.2865 19.8798 17.3665 19.8798 18.5603C19.8798 19.7413 20.359 20.8112 21.1349 21.588L21.1629 21.6136C21.9552 22.3951 23.0503 22.8781 24.2609 22.8781C25.4702 22.8781 26.566 22.3951 27.3583 21.6136C28.1513 20.8327 28.6414 19.7528 28.6414 18.5603C28.6414 17.3685 28.1513 16.2878 27.3583 15.507ZM5.30215 21.4047C5.13535 21.4047 5 21.2713 5 21.1063C5 21.022 5.01162 20.9378 5.03281 20.855C5.5168 17.0734 7.81709 16.2515 9.9458 15.7118C10.9678 15.4531 13.0069 14.4419 12.7595 13.1382C12.244 12.6673 11.732 12.0165 11.6432 11.0457L11.581 11.047C11.4381 11.045 11.3 11.0126 11.1708 10.9412C10.8864 10.7816 10.7306 10.4757 10.6554 10.1274C10.4981 9.06359 10.4578 8.52057 11.0334 8.28275L11.0382 8.28073C10.9671 6.96833 11.192 5.03746 9.82412 4.62919C12.5243 1.34078 15.6381 -0.448613 17.9753 2.47734C20.5798 2.61208 21.7412 6.24745 20.1238 8.28275H20.0555C20.6311 8.52057 20.5442 9.13028 20.4335 10.1274C20.3583 10.4757 20.2024 10.7816 19.9181 10.9412C19.7889 11.0126 19.6508 11.045 19.5079 11.047L19.4457 11.0457C19.3568 12.0165 18.8435 12.6673 18.328 13.1382C18.2446 13.5795 18.4217 13.9858 18.7334 14.3422C17.8153 15.5077 17.2698 16.9717 17.2698 18.5603C17.2698 19.5742 17.492 20.5376 17.8912 21.4047H5.30215Z" fill="white"/>
</g>
<defs>
<clipPath id="clip0_1234_724">
<rect width="35" height="23" fill="white" transform="translate(0 0.5)"/>
</clipPath>
</defs>
</svg>