<svg xmlns="http://www.w3.org/2000/svg" width="55" height="55" viewBox="0 0 55 55" fill="none">
<circle cx="27.5" cy="27.5" r="27.5" fill="#7C69EF"/>
<path d="M20.7602 38H33.2402C36.0002 38 36.7001 36.31 36.8301 34.25L36.7502 25.99C36.8902 23.83 35.1702 22 33.0002 22C32.3902 22 31.8302 21.65 31.5502 21.11L30.8302 19.66C30.3702 18.75 29.1702 18 28.1502 18H25.8602C24.8302 18 23.6302 18.75 23.1702 19.66L22.4502 21.11C22.1702 21.65 21.6102 22 21.0002 22C18.8302 22 17.1102 23.83 17.2502 25.99L17.2702 34.25C17.3902 36.31 18.0002 38 20.7602 38Z" stroke="white" stroke-width="1.5" stroke-linecap="round" stroke-linejoin="round"/>
<path d="M25.5 24H28.5" stroke="white" stroke-width="1.5" stroke-linecap="round" stroke-linejoin="round"/>
<path d="M27 34C28.79 34 30.25 32.54 30.25 30.75C30.25 28.96 28.79 27.5 27 27.5C25.21 27.5 23.75 28.96 23.75 30.75C23.75 32.54 25.21 34 27 34Z" stroke="white" stroke-width="1.5" stroke-linecap="round" stroke-linejoin="round"/>
</svg>