<svg xmlns="http://www.w3.org/2000/svg" width="55" height="55" viewBox="0 0 55 55" fill="none">
<circle cx="27.5" cy="27.5" r="27.5" fill="#7C69EF"/>
<path d="M24 38H30C35 38 37 36 37 31V25C37 20 35 18 30 18H24C19 18 17 20 17 25V31C17 36 19 38 24 38Z" stroke="white" stroke-width="1.5" stroke-linecap="round" stroke-linejoin="round"/>
<path d="M24 26C25.1046 26 26 25.1046 26 24C26 22.8954 25.1046 22 24 22C22.8954 22 22 22.8954 22 24C22 25.1046 22.8954 26 24 26Z" stroke="white" stroke-width="1.5" stroke-linecap="round" stroke-linejoin="round"/>
<path d="M17.6699 34.9501L22.5999 31.6401C23.3899 31.1101 24.5299 31.1701 25.2399 31.7801L25.5699 32.0701C26.3499 32.7401 27.6099 32.7401 28.3899 32.0701L32.5499 28.5001C33.3299 27.8301 34.5899 27.8301 35.3699 28.5001L36.9999 29.9001" stroke="white" stroke-width="1.5" stroke-linecap="round" stroke-linejoin="round"/>
</svg>