<svg xmlns="http://www.w3.org/2000/svg" width="47" height="24" viewBox="0 0 47 24" fill="none">
<path fill-rule="evenodd" clip-rule="evenodd" d="M1.11563 20.9017C0.978912 20.9017 0.868164 20.7926 0.868164 20.6579C0.868164 20.5878 0.877739 20.5197 0.894829 20.4517C1.29131 17.3526 3.75361 16.5259 5.50019 16.0793C6.37451 15.8563 8.54903 15.006 7.68223 13.8358C7.19688 13.1796 6.75732 12.7188 6.31709 12.0255C5.99921 11.5634 5.83173 11.1504 5.83173 10.8202C5.83173 10.4679 6.0211 10.0556 6.40049 9.96193C6.35059 9.25251 6.3335 8.31941 6.36768 7.56013C6.36768 7.56013 7.43682 5.29577 8.66251 4.86999C9.14717 4.68808 8.91269 3.96114 9.44863 3.94564C10.7051 3.91196 12.7648 4.96902 13.5693 5.82666C14.0383 6.32185 14.3391 6.98209 14.3897 7.85724L14.3391 10.0441C14.5735 10.1101 14.7246 10.259 14.7916 10.4901C14.8586 10.7542 14.7916 11.1174 14.5571 11.6294C14.5571 11.6455 14.54 11.6455 14.54 11.6624C14.0232 12.5018 13.4846 13.0583 12.8926 13.8358C12.6287 14.1834 12.68 14.5156 12.8994 14.8147C12.5911 14.9919 12.2897 15.196 12.0005 15.4359C10.8527 16.3851 9.96611 17.7999 9.6544 20.0529C9.59287 20.3163 9.56895 20.6349 9.61338 20.9017H1.11563Z" fill="white"/>
<path d="M1.86005 20.053C1.79853 20.3164 1.7746 20.6351 1.81904 20.9019L1.86005 20.053Z" fill="white"/>
<path fill-rule="evenodd" clip-rule="evenodd" d="M12.2479 20.9021C12.1112 20.9021 12.0005 20.793 12.0005 20.6583C12.0005 20.5882 12.01 20.5202 12.0271 20.4521C12.4236 17.353 14.8859 16.5264 16.6325 16.0797C17.5068 15.8567 19.6813 15.0065 18.8145 13.8362C18.3292 13.18 17.8896 12.7192 17.4494 12.0259C17.1315 11.5638 16.964 11.1508 16.964 10.8207C16.964 10.4683 17.1534 10.056 17.5328 9.96235C17.4829 9.25292 17.4658 8.31983 17.5 7.56055C17.6203 6.25691 18.5691 5.29619 19.7948 4.8704C20.2795 4.6885 20.045 3.96156 20.5809 3.94606C21.8374 3.91237 23.897 4.96944 24.7016 5.82708C25.1706 6.32226 25.4714 6.9825 25.5219 7.85766L25.4714 10.0445C25.7058 10.1106 25.8569 10.2595 25.9239 10.4905C25.9909 10.7546 25.9239 11.1178 25.6894 11.6298C25.6894 11.646 25.6723 11.646 25.6723 11.6628C25.1555 12.5023 24.6169 13.0587 24.0249 13.8362C23.761 14.1839 23.8123 14.516 24.0317 14.8151C23.7234 14.9923 23.4219 15.1964 23.1328 15.4363C21.985 16.3856 21.0984 17.8004 20.7867 20.0533C20.7252 20.3167 20.7012 20.6354 20.7457 20.9021H12.2479ZM40.6581 15.9429C40.656 15.7031 40.6335 15.532 40.9349 15.536L41.9111 15.5481C42.2262 15.5461 42.3103 15.6445 42.3069 15.9355V17.2479H43.6303C43.873 17.2459 44.0466 17.2237 44.0425 17.5208L44.0309 18.4835C44.0323 18.7941 43.9325 18.8763 43.6372 18.8729H42.3069V20.1846C42.3103 20.4757 42.2262 20.574 41.9111 20.572L40.9349 20.5842C40.6335 20.5882 40.656 20.4171 40.6581 20.1772V18.8729H39.3257C39.0311 18.8763 38.9313 18.7941 38.9327 18.4835L38.9211 17.5208C38.9163 17.2237 39.0906 17.2459 39.3333 17.2479H40.6581V15.9429ZM41.4818 12.6208C43.0055 12.6208 44.3857 13.2299 45.3838 14.2142C46.3825 15.1985 47.0005 16.5594 47.0005 18.0604C47.0005 19.5628 46.3825 20.9224 45.3838 21.9067C44.3857 22.891 43.0048 23.5 41.4818 23.5C39.9574 23.5 38.5779 22.891 37.5792 21.9067L37.5484 21.8743C36.5674 20.8914 35.9625 19.5439 35.9625 18.0604C35.9625 16.5607 36.5804 15.2005 37.5798 14.2162C38.5779 13.2299 39.9581 12.6208 41.4818 12.6208ZM44.5792 15.0071C43.7869 14.2263 42.6918 13.7432 41.4818 13.7432C40.2718 13.7432 39.1754 14.2263 38.3831 15.0071C37.5901 15.7866 37.1007 16.8666 37.1007 18.0604C37.1007 19.2414 37.5798 20.3113 38.3557 21.0881L38.3838 21.1137C39.176 21.8952 40.2712 22.3783 41.4818 22.3783C42.6911 22.3783 43.7869 21.8952 44.5792 21.1137C45.3721 20.3329 45.8623 19.2529 45.8623 18.0604C45.8623 16.8686 45.3721 15.788 44.5792 15.0071ZM22.523 20.9048C22.3562 20.9048 22.2209 20.7714 22.2209 20.6064C22.2209 20.5222 22.2325 20.438 22.2537 20.3551C22.7377 16.5735 25.038 15.7516 27.1667 15.2119C28.1886 14.9532 30.2278 13.942 29.9803 12.6383C29.4649 12.1674 28.9529 11.5166 28.864 10.5458L28.8018 10.5471C28.6589 10.5451 28.5209 10.5128 28.3917 10.4414C28.1073 10.2817 27.9514 9.97582 27.8762 9.62751C27.719 8.56371 27.6787 8.02069 28.2543 7.78287L28.259 7.78085C28.188 6.46845 28.4129 4.53758 27.045 4.12931C29.7452 0.840902 32.859 -0.948488 35.1962 1.97746C37.8007 2.1122 38.9621 5.74758 37.3447 7.78287H37.2763C37.8519 8.02069 37.7651 8.63041 37.6544 9.62751C37.5792 9.97582 37.4233 10.2817 37.1389 10.4414C37.0097 10.5128 36.8716 10.5451 36.7288 10.5471L36.6666 10.5458C36.5777 11.5166 36.0643 12.1674 35.5489 12.6383C35.4655 13.0796 35.6425 13.4859 35.9543 13.8423C35.0362 15.0078 34.4907 16.4718 34.4907 18.0604C34.4907 19.0744 34.7129 20.0378 35.1121 20.9048H22.523Z" fill="white"/>
</svg>