<svg xmlns="http://www.w3.org/2000/svg" width="83" height="83" viewBox="0 0 83 83" fill="none">
<path d="M79.5417 62.2503C79.5417 64.8441 78.8154 67.2995 77.5358 69.3745C76.8096 70.6195 75.8758 71.7262 74.8038 72.6253C72.3829 74.8041 69.2012 76.0837 65.7083 76.0837C61.4892 76.0837 57.7196 74.1817 55.2296 71.2075C55.1604 71.1038 55.0566 71.0345 54.9875 70.9308C54.5725 70.4466 54.1921 69.9278 53.8808 69.3745C52.6013 67.2995 51.875 64.8441 51.875 62.2503C51.875 57.8928 53.8808 53.9849 57.0625 51.4603C59.4487 49.5583 62.4575 48.417 65.7083 48.417C69.1667 48.417 72.2792 49.6619 74.7 51.7715C75.115 52.0827 75.4954 52.4633 75.8412 52.8438C78.1237 55.3338 79.5417 58.6191 79.5417 62.2503Z" stroke="#7C69EF" stroke-width="3" stroke-miterlimit="10" stroke-linecap="round" stroke-linejoin="round"/>
<path d="M70.8606 62.1807H60.5547" stroke="#7C69EF" stroke-width="3" stroke-miterlimit="10" stroke-linecap="round" stroke-linejoin="round"/>
<path d="M65.708 57.1318V67.4722" stroke="#7C69EF" stroke-width="3" stroke-miterlimit="10" stroke-linecap="round" stroke-linejoin="round"/>
<path d="M10.9619 25.7305L41.499 43.4025L71.8286 25.8341" stroke="#7C69EF" stroke-width="3" stroke-linecap="round" stroke-linejoin="round"/>
<path d="M41.499 74.7353V43.3682" stroke="#7C69EF" stroke-width="3" stroke-linecap="round" stroke-linejoin="round"/>
<path d="M74.7348 31.7133V51.2875C74.7348 51.4605 74.7348 51.5986 74.7002 51.7715C72.2794 49.662 69.1669 48.4171 65.7085 48.4171C62.4577 48.4171 59.449 49.5583 57.0627 51.4604C53.881 53.985 51.8752 57.8929 51.8752 62.2504C51.8752 64.8441 52.6015 67.2996 53.881 69.3746C54.1923 69.9279 54.5727 70.4467 54.9877 70.9308L48.659 74.4238C44.7165 76.6371 38.2839 76.6371 34.3414 74.4238L15.8739 64.1871C11.6894 61.87 8.26562 56.06 8.26562 51.2875V31.7133C8.26562 26.9408 11.6894 21.1308 15.8739 18.8137L34.3414 8.57699C38.2839 6.36366 44.7165 6.36366 48.659 8.57699L67.1265 18.8137C71.3111 21.1308 74.7348 26.9408 74.7348 31.7133Z" stroke="#7C69EF" stroke-width="3" stroke-linecap="round" stroke-linejoin="round"/>
</svg>