<svg xmlns="http://www.w3.org/2000/svg" width="48" height="48" viewBox="0 0 48 48" fill="none">
<path d="M26.02 5.83965L37.82 11.0796C41.22 12.5796 41.22 15.0596 37.82 16.5596L26.02 21.7997C24.68 22.3997 22.48 22.3997 21.14 21.7997L9.34004 16.5596C5.94004 15.0596 5.94004 12.5796 9.34004 11.0796L21.14 5.83965C22.48 5.23965 24.68 5.23965 26.02 5.83965Z" stroke="#7C69EF" stroke-width="2" stroke-linecap="round" stroke-linejoin="round"/>
<path d="M6 22C6 23.68 7.26 25.62 8.8 26.3L22.38 32.34C23.42 32.8 24.6 32.8 25.62 32.34L39.2 26.3C40.74 25.62 42 23.68 42 22" stroke="#7C69EF" stroke-width="2" stroke-linecap="round" stroke-linejoin="round"/>
<path d="M6 32C6 33.86 7.1 35.54 8.8 36.3L22.38 42.34C23.42 42.8 24.6 42.8 25.62 42.34L39.2 36.3C40.9 35.54 42 33.86 42 32" stroke="#7C69EF" stroke-width="2" stroke-linecap="round" stroke-linejoin="round"/>
</svg>