<svg xmlns="http://www.w3.org/2000/svg" width="91" height="83" viewBox="0 0 91 83" fill="none">
<path d="M7.67334 43.6104H71.4233" stroke="#7C69EF" stroke-width="3" stroke-miterlimit="10" stroke-linecap="round" stroke-linejoin="round"/>
<path d="M71.4233 35.5519V60.279C71.3108 70.1353 68.3857 72.6253 57.2482 72.6253H21.8484C10.5234 72.6253 7.67334 70.0315 7.67334 59.7257V35.5519C7.67334 26.2144 10.0358 23.2057 18.9233 22.7215C19.8233 22.6869 20.7984 22.6523 21.8484 22.6523H57.2482C68.5732 22.6523 71.4233 25.2461 71.4233 35.5519Z" stroke="#7C69EF" stroke-width="3" stroke-linecap="round" stroke-linejoin="round"/>
<path d="M82.6733 23.2746V47.4483C82.6733 56.7858 80.3108 59.7946 71.4233 60.2787V35.5517C71.4233 25.2458 68.5732 22.6521 57.2482 22.6521H21.8484C20.7984 22.6521 19.8233 22.6867 18.9233 22.7212C19.0358 12.865 21.9609 10.375 33.0984 10.375H68.4982C79.8232 10.375 82.6733 12.9687 82.6733 23.2746Z" stroke="#7C69EF" stroke-width="3" stroke-linecap="round" stroke-linejoin="round"/>
<path d="M19.8608 61.5928H26.3107" stroke="#7C69EF" stroke-width="3" stroke-miterlimit="10" stroke-linecap="round" stroke-linejoin="round"/>
<path d="M34.3359 61.5928H47.2359" stroke="#7C69EF" stroke-width="3" stroke-miterlimit="10" stroke-linecap="round" stroke-linejoin="round"/>
</svg>