<svg xmlns="http://www.w3.org/2000/svg" width="25" height="25" viewBox="0 0 25 25" fill="none">
<path d="M17.2443 0.376953H7.28318C2.95639 0.376953 0.376953 2.95639 0.376953 7.28318V17.2324C0.376953 21.5711 2.95639 24.1505 7.28318 24.1505H17.2324C21.5592 24.1505 24.1387 21.5711 24.1387 17.2443V7.28318C24.1505 2.95639 21.5711 0.376953 17.2443 0.376953ZM16.7332 16.7332C16.6619 17.7436 16.5787 19.0036 14.2964 19.0036H10.2311C7.96073 19.0036 7.86563 17.7436 7.79431 16.7332L7.42582 12.026C7.40205 11.717 7.50903 11.4198 7.7111 11.1939C7.91318 10.9681 8.21035 10.8492 8.50752 10.8492H16.02C16.3171 10.8492 16.6143 10.98 16.8164 11.1939C17.0185 11.4198 17.1254 11.717 17.1017 12.0141L16.7332 16.7332ZM17.9694 9.67242C17.9456 9.67242 17.9219 9.67242 17.8981 9.67242C16.6619 9.55356 15.5326 9.47035 14.4509 9.4228C13.0007 9.35148 11.5505 9.32771 10.0885 9.38714C9.37525 9.4228 8.65016 9.47035 7.93695 9.54167L6.64129 9.67242C6.61752 9.67242 6.58186 9.67242 6.55808 9.67242C6.14205 9.67242 5.78544 9.36337 5.74978 8.93544C5.70224 8.49563 6.03507 8.09148 6.47488 8.05582L7.77054 7.92507C8.28167 7.87752 8.78092 7.84186 9.29205 7.81809L9.38714 7.25941C9.48224 6.66507 9.66054 5.52393 11.4436 5.52393H13.0958C14.8907 5.52393 15.069 6.70073 15.1522 7.27129L15.2473 7.84186C16.1388 7.88941 17.0541 7.96073 18.0526 8.05582C18.5043 8.10337 18.8253 8.49563 18.7896 8.94733C18.742 9.36337 18.3854 9.67242 17.9694 9.67242Z" fill="#EB1F04"/>
</svg>