<svg xmlns="http://www.w3.org/2000/svg" width="29" height="29" viewBox="0 0 29 29" fill="none">
<path d="M19.716 2.37695H9.75486C5.42807 2.37695 2.84863 4.95639 2.84863 9.28318V19.2324C2.84863 23.5711 5.42807 26.1505 9.75486 26.1505H19.7041C24.0309 26.1505 26.6103 23.5711 26.6103 19.2443V9.28318C26.6222 4.95639 24.0428 2.37695 19.716 2.37695ZM13.4873 20.8134C13.1426 21.1581 12.4888 21.4909 12.0133 21.5622L9.0892 21.9783C8.98222 21.9902 8.87524 22.002 8.76826 22.002C8.2809 22.002 7.8292 21.8356 7.50826 21.5147C7.11599 21.1224 6.94958 20.5519 7.04467 19.9219L7.46071 16.9977C7.53203 16.5103 7.85297 15.8685 8.20958 15.5237L13.5111 10.2222C13.6062 10.4719 13.7013 10.7215 13.832 11.0068C13.9509 11.2564 14.0817 11.5179 14.2243 11.7556C14.3432 11.9577 14.4739 12.1479 14.5809 12.2905C14.7117 12.4926 14.8662 12.6828 14.9613 12.7898C15.0207 12.873 15.0683 12.9324 15.092 12.9562C15.3892 13.3128 15.7339 13.6456 16.0311 13.8953C16.1143 13.9785 16.1618 14.026 16.1856 14.0379C16.3639 14.1805 16.5422 14.3232 16.6967 14.4302C16.8869 14.5728 17.0771 14.7036 17.2792 14.8105C17.5169 14.9532 17.7784 15.0839 18.04 15.2147C18.3133 15.3336 18.563 15.4405 18.8126 15.5237L13.4873 20.8134ZM21.1186 13.182L20.025 14.2875C19.9537 14.3588 19.8586 14.3945 19.7635 14.3945C19.7279 14.3945 19.6803 14.3945 19.6566 14.3826C17.2435 13.6932 15.3179 11.7675 14.6284 9.3545C14.5928 9.22375 14.6284 9.0811 14.7235 8.9979L15.829 7.89242C17.6358 6.08563 19.3594 6.12129 21.1305 7.89242C22.0339 8.79582 22.4737 9.66356 22.4737 10.567C22.4618 11.4228 22.022 12.2787 21.1186 13.182Z" fill="#7C69EF"/>
</svg>